<?xml version="1.0" encoding="iso-8859-1"?>
<!-- Generator: Adobe Illustrator 16.0.0, SVG Export Plug-In . SVG Version: 6.00 Build 0)  -->
<!DOCTYPE svg PUBLIC "-//W3C//DTD SVG 1.1//EN" "http://www.w3.org/Graphics/SVG/1.1/DTD/svg11.dtd">
<svg version="1.1" id="Capa_1" xmlns="http://www.w3.org/2000/svg" xmlns:xlink="http://www.w3.org/1999/xlink" x="0px" y="0px"
	 width="93.892px" height="93.892px" viewBox="0 0 93.892 93.892" style="enable-background:new 0 0 93.892 93.892;"
	 xml:space="preserve">
<g>
	<g>
		<path d="M47.578,39.77c-4.576-3.536-9.852-5.135-15.543-5.384c-5.634-0.246-11.215-0.011-16.286,3.184c0-0.414,0-0.697,0-0.98
			l-0.017-18.244H0V73.98h15.732v-2.5c0.003,0,0.006,0.002,0.009,0.004c6.058,3.142,12.486,3.756,19.139,2.793
			c4.549-0.66,8.779-2.178,12.593-4.785c1.939-1.573,3.659-3.332,4.896-5.541C56.072,57.336,55.559,46.049,47.578,39.77z
			 M30.136,65.695c-6.131,0.006-11.145-5.017-11.129-11.146c0.015-6.101,5.003-11.078,11.104-11.079
			c6.159,0,11.122,4.973,11.112,11.139C41.215,60.717,36.242,65.691,30.136,65.695z"/>
		<path d="M77.551,37.229c-1.289-0.629-2.48-1.202-3.752-1.577c-4.721-1.396-9.514-1.506-14.341-0.753
			c-3.741,0.584-7.282,1.689-10.412,3.789c3.786,3.146,5.999,7.369,6.896,11.735c1.645-4.06,5.614-6.945,10.221-6.952
			c6.134-0.01,11.068,4.934,11.076,11.094c0.008,6.149-4.938,11.131-11.047,11.131c-4.514,0-8.416-2.76-10.131-6.682
			c-0.393,2.206-1.109,4.279-2.115,6.076c-1.125,2.01-2.66,3.814-4.801,5.632c8.938,6.161,18.44,6.159,28.406,1.481l0.016,2.168
			h16.127V34.83H77.591L77.551,37.229z"/>
		<path d="M33.523,27.843c0.474-0.062,0.828-0.161,1.063-0.297c0.379-0.218,0.678-0.515,0.896-0.89
			c0.219-0.375,0.328-0.798,0.328-1.268c0-0.577-0.155-1.055-0.463-1.434c-0.306-0.384-0.783-0.654-1.436-0.81
			c0.429-0.148,0.755-0.35,0.978-0.606c0.333-0.383,0.501-0.843,0.501-1.378c0-0.64-0.234-1.175-0.704-1.608
			c-0.467-0.433-1.137-0.649-2.011-0.649h-5.242v9.064h4.835C32.472,27.967,32.891,27.925,33.523,27.843z M30.258,20.739h1.236
			c0.425,0,0.722,0.074,0.891,0.222c0.173,0.149,0.26,0.355,0.26,0.619c0,0.285-0.087,0.503-0.26,0.655
			c-0.169,0.149-0.472,0.223-0.909,0.223h-1.218V20.739z M30.258,26.019v-1.836h1.422c0.49,0,0.832,0.083,1.026,0.248
			c0.198,0.161,0.297,0.375,0.297,0.643c0,0.289-0.099,0.519-0.297,0.692c-0.197,0.169-0.537,0.254-1.021,0.254L30.258,26.019
			L30.258,26.019z"/>
		<path d="M49.084,26.47h3.189l0.445,1.497h2.932l-3.408-9.064h-3.055l-3.406,9.064h2.863L49.084,26.47z M50.684,21.253l1.002,3.258
			h-1.996L50.684,21.253z"/>
		<path d="M68.771,24.288h0.248c0.256,0,0.483,0.07,0.686,0.21c0.148,0.107,0.318,0.34,0.509,0.699l1.496,2.77h3.166l-1.354-2.628
			c-0.064-0.131-0.197-0.32-0.395-0.563c-0.194-0.243-0.344-0.402-0.446-0.476c-0.151-0.111-0.396-0.223-0.729-0.334
			c0.416-0.094,0.744-0.214,0.982-0.358c0.375-0.227,0.672-0.521,0.885-0.884c0.215-0.367,0.321-0.802,0.321-1.305
			c0-0.577-0.141-1.065-0.42-1.465c-0.28-0.404-0.649-0.68-1.106-0.829c-0.459-0.148-1.119-0.223-1.984-0.223h-4.668v9.064h2.812
			v-3.678H68.771z M68.771,20.733h1.231c0.511,0,0.858,0.078,1.044,0.235c0.186,0.157,0.277,0.381,0.277,0.674
			c0,0.198-0.06,0.373-0.178,0.525c-0.115,0.153-0.267,0.248-0.451,0.284c-0.369,0.083-0.615,0.124-0.744,0.124h-1.18V20.733
			L68.771,20.733z"/>
		<polygon points="85.378,18.903 85.378,21.141 88.234,21.141 88.234,27.967 91.037,27.967 91.037,21.141 93.892,21.141 
			93.892,18.903 		"/>
	</g>
</g>
<g>
</g>
<g>
</g>
<g>
</g>
<g>
</g>
<g>
</g>
<g>
</g>
<g>
</g>
<g>
</g>
<g>
</g>
<g>
</g>
<g>
</g>
<g>
</g>
<g>
</g>
<g>
</g>
<g>
</g>
</svg>
